# xmcd
#
# Track frame offsets:
#	150
#	11699
#	25258
#	40428
#	53672
#	67737
#	77834
#	91977
#	105920
#	119058
#	130023
#	144646
#	158182
#	171504
#
# Disc length: 2602 seconds
#
# Revision: 1
# Processed by: cddbd v1.5.1PL2 Copyright (c) Steve Scherf et al.
# Submitted via: audiograbber 1.81.03
#
DISCID=b60a280e
DTITLE=Various Artist - Boppin' In The Basement
DYEAR=2006
DGENRE=Ballad
TTITLE0=Deon Jackson - Love Makes The World Go 'Round
TTITLE1=The Temptation - The Girl's Alright With Me
TTITLE2=Jackie Ross - Selfish One
TTITLE3=Barbara Acklin - Love Makes A Woman
TTITLE4=Gladys Knight And The Pips - Everybody Needs Love
TTITLE5=Marvin Gaye - Pride And Joy
TTITLE6=Martha And The Vandellas - My Baby Loves Me
TTITLE7=Dee Dee Warwick - When Love Slips Away
TTITLE8=Originals - I Like Your Style
TTITLE9=The Temptations - Beauty Is Only Skinn Deep
TTITLE10=Betty Swann - Make Me Yours
TTITLE11=The Miracles - That's What Love Is Made Of
TTITLE12=Jackie Wilson - This Love Is Real
TTITLE13=Fred Westley And The JBs - Doing It To Death
EXTD=
EXTT0=
EXTT1=
EXTT2=
EXTT3=
EXTT4=
EXTT5=
EXTT6=
EXTT7=
EXTT8=
EXTT9=
EXTT10=
EXTT11=
EXTT12=
EXTT13=
PLAYORDER=
